{"glyphs":{"0":{"ha":1832,"x_min":0,"x_max":1688,"o":"m 317 0 l 1372 0 q 1595 93 1503 0 q 1688 317 1688 186 l 1688 794 q 1595 1019 1688 926 q 1372 1111 1503 1111 l 317 1111 q 93 1019 186 1111 q 0 794 0 926 l 0 317 q 93 93 0 186 q 317 0 186 0 m 154 794 q 201 910 154 863 q 317 957 249 957 l 1372 957 q 1487 910 1439 957 q 1535 794 1535 863 l 1535 317 q 1487 201 1535 249 q 1372 154 1439 154 l 317 154 q 201 201 249 154 q 154 317 154 249 l 154 794 m 1372 824 l 1182 824 l 288 332 l 288 317 q 317 288 288 288 l 526 288 l 1400 768 l 1400 794 q 1372 824 1400 824 z "},"1":{"ha":1836,"x_min":0,"x_max":1688,"o":"m 1372 1111 l 317 1111 q 93 1019 186 1111 q 0 794 0 926 l 0 718 l 154 718 l 154 794 q 201 910 154 863 q 317 957 249 957 l 1372 957 q 1487 910 1439 957 q 1535 794 1535 863 l 1535 0 l 1688 0 l 1688 794 q 1595 1019 1688 926 q 1372 1111 1503 1111 z "},"2":{"ha":1824,"x_min":0,"x_max":1676,"o":"m 317 479 l 1361 479 q 1584 572 1492 479 q 1676 794 1676 664 q 1584 1018 1676 925 q 1361 1111 1492 1111 l 21 1111 l 21 957 l 1361 957 q 1476 910 1428 957 q 1524 794 1524 863 q 1476 680 1524 728 q 1361 632 1428 632 l 317 632 q 92 540 185 632 q 0 317 0 447 q 92 93 0 186 q 317 0 185 0 l 1361 0 q 1584 92 1492 0 q 1676 317 1676 185 l 1676 393 l 1524 393 l 1524 317 q 1476 201 1524 249 q 1361 154 1428 154 l 317 154 q 201 201 249 154 q 154 317 154 249 q 201 431 154 383 q 317 479 249 479 z "},"3":{"ha":1829,"x_min":0,"x_max":1688,"o":"m 1372 1111 l 0 1111 l 0 957 l 1372 957 q 1487 910 1439 957 q 1535 794 1535 863 l 1535 632 l 479 632 l 479 479 l 1535 479 l 1535 317 q 1487 201 1535 249 q 1372 154 1439 154 l 0 154 l 0 0 l 1372 0 q 1595 92 1503 0 q 1688 317 1688 185 l 1688 794 q 1595 1019 1688 926 q 1372 1111 1503 1111 z "},"4":{"ha":1832,"x_min":0,"x_max":1688,"o":"m 1535 632 l 317 632 q 201 680 249 632 q 154 794 154 728 l 154 1111 l 0 1111 l 0 794 q 92 572 0 664 q 317 479 185 479 l 1535 479 l 1533 0 l 1688 0 l 1688 1111 l 1535 1111 l 1535 632 z "},"5":{"ha":1824,"x_min":0,"x_max":1676,"o":"m 1361 479 l 317 479 q 92 572 185 479 q 0 794 0 664 q 92 1018 0 925 q 317 1111 185 1111 l 1656 1111 l 1656 957 l 317 957 q 201 910 249 957 q 154 794 154 863 q 201 680 154 728 q 317 632 249 632 l 1361 632 q 1584 540 1492 632 q 1676 317 1676 447 q 1584 93 1676 186 q 1361 0 1492 0 l 317 0 q 92 92 185 0 q 0 317 0 185 l 0 393 l 154 393 l 154 317 q 201 201 154 249 q 317 154 249 154 l 1361 154 q 1476 201 1428 154 q 1524 317 1524 249 q 1476 431 1524 383 q 1361 479 1428 479 z "},"6":{"ha":1842,"x_min":0,"x_max":1689,"o":"m 1372 632 l 261 632 l 261 479 l 1372 479 q 1487 431 1439 479 q 1535 317 1535 383 q 1487 201 1535 249 q 1372 154 1439 154 l 317 154 q 201 201 249 154 q 154 317 154 249 l 154 794 q 201 910 154 863 q 317 957 249 957 l 1372 957 q 1487 910 1439 957 q 1535 794 1535 863 l 1535 718 l 1688 718 l 1688 794 q 1595 1019 1688 926 q 1372 1111 1503 1111 l 317 1111 q 93 1019 186 1111 q 0 794 0 926 l 0 317 q 93 93 0 186 q 317 0 186 0 l 1372 0 q 1596 93 1503 0 q 1689 317 1689 186 q 1596 540 1689 447 q 1372 632 1503 632 z "},"7":{"ha":1846,"x_min":0,"x_max":1688,"o":"m 1372 1111 l 0 1111 l 0 957 l 1372 957 q 1487 910 1439 957 q 1535 794 1535 863 l 1535 632 l 544 632 l 544 479 l 1535 479 l 1535 0 l 1688 0 l 1688 794 q 1595 1019 1688 926 q 1372 1111 1503 1111 z "},"8":{"ha":1828,"x_min":0,"x_max":1688,"o":"m 1688 794 q 1595 1018 1688 925 q 1372 1111 1503 1111 l 317 1111 q 92 1019 185 1111 q 0 794 0 926 q 110 556 0 650 q 0 317 0 461 q 92 93 0 186 q 317 0 185 0 l 1372 0 q 1595 93 1503 0 q 1688 317 1688 186 q 1578 556 1688 461 q 1688 794 1688 650 m 154 794 q 201 910 154 863 q 317 957 249 957 l 1372 957 q 1487 910 1439 957 q 1535 794 1535 863 q 1487 680 1535 728 q 1372 632 1439 632 l 317 632 q 201 680 249 632 q 154 794 154 728 l 154 794 m 1372 154 l 317 154 q 201 201 249 154 q 154 317 154 249 l 154 317 q 201 431 154 383 q 317 479 249 479 l 1372 479 q 1487 431 1439 479 q 1535 317 1535 383 q 1487 201 1535 249 q 1372 154 1439 154 z "},"9":{"ha":1842,"x_min":0,"x_max":1689,"o":"m 317 479 l 1426 479 l 1426 632 l 317 632 q 201 680 249 632 q 154 794 154 728 q 201 910 154 863 q 317 957 249 957 l 1372 957 q 1487 910 1439 957 q 1535 794 1535 863 l 1535 317 q 1487 201 1535 249 q 1372 154 1439 154 l 317 154 q 201 201 249 154 q 154 317 154 249 l 154 393 l 0 393 l 0 317 q 93 92 0 185 q 317 0 186 0 l 1372 0 q 1596 92 1503 0 q 1689 317 1689 185 l 1689 794 q 1596 1018 1689 925 q 1372 1111 1503 1111 l 317 1111 q 92 1018 185 1111 q 0 794 0 925 q 92 572 0 664 q 317 479 185 479 z "}," ":{"ha":1389,"x_min":0,"x_max":0,"o":""},"!":{"ha":290,"x_min":0,"x_max":154,"o":"m 0 1111 l 0 272 l 154 272 l 154 1111 l 0 1111 m 0 0 l 153 0 l 153 153 l 0 153 l 0 0 z "},",":{"ha":300,"x_min":-1,"x_max":150,"o":"m -1 -153 l 150 -153 l 150 150 l -1 150 l -1 -153 z "},"-":{"ha":849,"x_min":-1,"x_max":706,"o":"m 706 632 l -1 632 l -1 482 l 706 482 l 706 632 z "},"‐":{"ha":849,"x_min":-1,"x_max":706,"o":"m 706 632 l -1 632 l -1 482 l 706 482 l 706 632 z "},".":{"ha":300,"x_min":-1,"x_max":150,"o":"m -1 0 l 150 0 l 150 150 l -1 150 l -1 0 z "},"/":{"ha":542,"x_min":0,"x_max":431,"o":"m 154 33 l 154 0 l 0 0 l 0 33 q 13 124 0 78 q 269 1031 13 122 q 276 1078 276 1054 l 276 1111 l 431 1111 l 431 1078 q 418 988 431 1033 q 161 81 418 988 q 154 33 154 56 z "},":":{"ha":300,"x_min":-1,"x_max":150,"o":"m -1 0 l 150 0 l 150 150 l -1 150 l -1 0 m 150 632 l -1 632 l -1 482 l 150 482 l 150 632 z "},";":{"ha":300,"x_min":-1,"x_max":150,"o":"m 150 632 l -1 632 l -1 482 l 150 482 l 150 632 m -1 -153 l 150 -153 l 150 150 l -1 150 l -1 -153 z "},"?":{"ha":1833,"x_min":0,"x_max":1689,"o":"m 1372 1111 l 317 1111 q 93 1018 186 1111 q 0 794 0 925 l 0 718 l 154 718 l 154 794 q 201 910 154 863 q 317 957 249 957 l 1372 957 q 1488 910 1440 957 q 1535 794 1535 863 q 1488 680 1535 728 q 1372 632 1440 632 l 915 632 q 692 540 785 632 q 599 315 599 447 l 753 315 q 800 431 753 383 q 915 479 847 479 l 1372 479 q 1596 572 1503 479 q 1689 794 1689 664 q 1596 1018 1689 925 q 1372 1111 1503 1111 m 599 153 l 599 0 l 753 0 l 753 153 l 599 153 z "},"@":{"ha":1854,"x_min":0,"x_max":1689,"o":"m 1372 1111 l 317 1111 q 93 1019 186 1111 q 0 794 0 926 l 0 317 q 93 92 0 185 q 317 0 186 0 l 1372 0 l 1372 154 l 317 154 q 201 201 249 154 q 154 317 154 249 l 154 794 q 201 910 154 863 q 317 957 249 957 l 1372 957 q 1487 910 1439 957 q 1535 794 1535 863 l 1535 436 l 1235 436 l 1235 654 q 1184 777 1235 726 q 1060 828 1133 828 l 628 828 q 504 777 556 828 q 453 654 453 726 l 453 457 q 504 333 453 385 q 628 282 556 282 l 975 282 l 975 436 l 628 436 q 607 457 607 436 l 607 654 q 628 675 607 675 l 1060 675 q 1082 654 1082 675 l 1082 282 l 1689 283 l 1689 794 q 1596 1019 1689 926 q 1372 1111 1503 1111 z "},"A":{"ha":1829,"x_min":0,"x_max":1688,"o":"m 1372 1111 l 317 1111 q 93 1019 186 1111 q 0 794 0 926 l 0 317 q 93 92 0 185 q 317 0 186 0 l 1372 0 l 1372 154 l 317 154 q 201 201 249 154 q 154 317 154 249 l 154 794 q 201 910 154 863 q 317 957 249 957 l 1372 957 q 1487 910 1439 957 q 1535 794 1535 863 l 1535 0 l 1688 0 l 1688 794 q 1595 1019 1688 926 q 1372 1111 1503 1111 z "},"B":{"ha":1815,"x_min":0,"x_max":1688,"o":"m 1688 794 q 1595 1019 1688 926 q 1372 1111 1503 1111 l 317 1111 q 92 1019 185 1111 q 0 794 0 926 l 0 0 l 1372 0 q 1595 93 1503 0 q 1688 317 1688 186 q 1576 556 1688 460 q 1688 794 1688 651 m 1372 154 l 154 154 l 154 479 l 1372 479 q 1487 431 1439 479 q 1535 317 1535 383 q 1487 201 1535 249 q 1372 154 1439 154 m 1372 632 l 154 632 l 154 794 q 201 910 154 863 q 317 957 249 957 l 1372 957 q 1487 910 1439 957 q 1535 794 1535 863 q 1487 680 1535 728 q 1372 632 1439 632 z "},"C":{"ha":1843,"x_min":0,"x_max":1688,"o":"m 317 0 l 1688 0 l 1688 154 l 317 154 q 201 201 249 154 q 154 317 154 249 l 154 794 q 201 910 154 863 q 317 957 249 957 l 1688 957 l 1688 1111 l 317 1111 q 93 1019 186 1111 q 0 794 0 926 l 0 317 q 93 93 0 186 q 317 0 186 0 z "},"D":{"ha":1829,"x_min":0,"x_max":1688,"o":"m 1372 1111 l 0 1111 l 0 0 l 1372 0 q 1595 93 1503 0 q 1688 317 1688 186 l 1688 794 q 1595 1019 1688 926 q 1372 1111 1503 1111 m 1535 317 q 1487 201 1535 249 q 1372 154 1439 154 l 154 154 l 154 957 l 1372 957 q 1487 910 1439 957 q 1535 794 1535 863 l 1535 317 z "},"E":{"ha":1854,"x_min":0,"x_max":1689,"o":"m 1372 632 l 261 632 l 261 479 l 1372 479 q 1596 572 1503 479 q 1689 794 1689 664 q 1596 1019 1689 926 q 1372 1111 1503 1111 l 317 1111 q 93 1019 186 1111 q 0 794 0 926 l 0 317 q 93 92 0 185 q 317 0 186 0 l 1667 0 l 1667 154 l 317 154 q 201 201 249 154 q 154 317 154 249 l 154 794 q 201 910 154 863 q 317 957 249 957 l 1372 957 q 1487 910 1439 957 q 1535 794 1535 863 q 1487 680 1535 728 q 1372 632 1439 632 z "},"F":{"ha":1861,"x_min":0,"x_max":1688,"o":"m 317 1111 q 92 1019 185 1111 q 0 794 0 926 l 0 0 l 154 0 l 154 479 l 1688 479 l 1688 632 l 154 632 l 154 794 q 201 910 154 863 q 317 957 249 957 l 1688 957 l 1688 1111 l 317 1111 z "},"G":{"ha":1840,"x_min":0,"x_max":1689,"o":"m 317 0 l 1372 0 q 1596 93 1503 0 q 1689 317 1689 186 q 1596 540 1689 447 q 1372 632 1503 632 l 294 632 l 294 479 l 1372 479 q 1487 431 1439 479 q 1535 317 1535 383 q 1487 201 1535 249 q 1372 154 1439 154 l 317 154 q 201 201 249 154 q 154 317 154 249 l 154 794 q 201 910 154 863 q 317 957 249 957 l 1667 957 l 1667 1111 l 317 1111 q 93 1019 186 1111 q 0 794 0 926 l 0 317 q 93 93 0 186 q 317 0 186 0 z "},"H":{"ha":1836,"x_min":0,"x_max":1676,"o":"m 154 479 l 1524 479 l 1524 0 l 1676 0 l 1676 1111 l 1524 1111 l 1524 632 l 154 632 l 154 1111 l 0 1111 l 0 0 l 154 0 l 154 479 z "},"I":{"ha":307,"x_min":0,"x_max":154,"o":"m 154 1111 l 0 1111 l 0 0 l 154 0 l 154 1111 z "},"J":{"ha":1815,"x_min":0,"x_max":1656,"o":"m 1656 1035 l 1656 1111 l 1503 1111 l 1501 317 q 1454 201 1501 249 q 1339 154 1407 154 l 0 154 l 0 0 l 1339 0 q 1563 93 1469 0 q 1656 317 1656 186 q 1656 343 1656 256 q 1656 529 1656 396 q 1656 1035 1656 1225 z "},"K":{"ha":1822,"x_min":-1,"x_max":1676,"o":"m 1654 154 l 597 154 q 483 201 531 154 q 435 317 435 249 q 483 431 435 383 q 597 479 531 479 l 1360 479 q 1583 572 1490 479 q 1676 796 1676 665 q 1583 1019 1676 926 q 1360 1113 1490 1113 l 151 1111 l 151 1406 l -1 1406 l -1 0 l 151 0 l 151 958 l 1360 958 q 1475 910 1428 958 q 1522 796 1522 863 q 1475 681 1522 728 q 1360 633 1428 633 l 597 633 q 374 540 467 633 q 282 317 282 447 q 374 93 282 186 q 597 0 467 0 l 1654 0 l 1654 154 z "},"L":{"ha":1815,"x_min":0,"x_max":1656,"o":"m 0 1035 l 0 1111 l 154 1111 l 154 317 q 201 201 154 249 q 317 154 249 154 l 1656 154 l 1656 0 l 317 0 q 93 93 186 0 q 0 317 0 186 q 0 343 0 257 q 0 529 0 396 q 0 1035 0 1224 z "},"M":{"ha":2297,"x_min":0,"x_max":2135,"o":"m 154 794 q 201 910 154 863 q 317 957 249 957 l 828 957 q 942 910 894 957 q 990 797 990 864 q 990 794 990 796 l 990 0 l 1144 0 l 1144 0 l 1144 0 l 1144 794 q 1144 797 1144 796 q 1192 910 1144 864 q 1307 957 1240 957 l 1818 957 q 1933 910 1886 957 q 1981 794 1981 863 l 1981 0 l 2135 0 l 2135 794 q 2042 1019 2135 926 q 1818 1111 1949 1111 l 1307 1111 q 1067 1001 1163 1111 q 828 1111 972 1111 l 317 1111 q 93 1019 186 1111 q 0 794 0 926 l 0 0 l 154 0 l 154 794 z "},"N":{"ha":1818,"x_min":0,"x_max":1689,"o":"m 1689 0 l 1689 794 q 1596 1019 1689 926 q 1372 1111 1503 1111 l 317 1111 q 93 1019 186 1111 q 0 794 0 926 l 0 0 l 154 0 l 154 794 q 201 910 154 863 q 317 957 249 957 l 1372 957 q 1487 910 1439 957 q 1535 794 1535 863 l 1535 0 l 1689 0 z "},"O":{"ha":1846,"x_min":0,"x_max":1688,"o":"m 317 0 l 1372 0 q 1595 93 1503 0 q 1688 317 1688 186 l 1688 794 q 1595 1019 1688 926 q 1372 1111 1503 1111 l 317 1111 q 93 1019 186 1111 q 0 794 0 926 l 0 317 q 93 93 0 186 q 317 0 186 0 m 154 794 q 201 910 154 863 q 317 957 249 957 l 1372 957 q 1487 910 1439 957 q 1535 794 1535 863 l 1535 317 q 1487 201 1535 249 q 1372 154 1439 154 l 317 154 q 201 201 249 154 q 154 317 154 249 l 154 794 z "},"P":{"ha":1842,"x_min":3,"x_max":1693,"o":"m 1376 1113 l 319 1113 q 96 1020 189 1113 q 3 796 3 928 l 3 -185 l 157 -185 l 157 796 q 204 912 157 864 q 319 960 251 960 l 1376 960 q 1491 912 1443 960 q 1539 796 1539 864 l 1539 317 q 1491 202 1539 250 q 1376 154 1443 154 l 318 154 l 318 0 l 1376 0 q 1600 93 1507 0 q 1693 317 1693 186 l 1693 796 q 1600 1020 1693 928 q 1376 1113 1507 1113 z "},"Q":{"ha":1847,"x_min":0,"x_max":1688,"o":"m 317 0 l 393 0 l 393 154 l 317 154 q 201 201 249 154 q 154 317 154 249 l 154 794 q 201 910 154 863 q 317 957 249 957 l 1372 957 q 1487 910 1439 957 q 1535 794 1535 863 l 1535 317 q 1487 201 1535 249 q 1372 154 1439 154 l 860 154 q 740 207 789 154 l 689 264 l 575 160 l 626 103 q 860 0 721 0 l 1372 0 q 1595 93 1503 0 q 1688 317 1688 186 l 1688 794 q 1595 1019 1688 926 q 1372 1111 1503 1111 l 317 1111 q 92 1019 185 1111 q 0 794 0 926 l 0 317 q 93 93 0 186 q 317 0 186 0 z "},"R":{"ha":1847,"x_min":0,"x_max":1689,"o":"m 589 479 l 1372 479 q 1596 572 1503 479 q 1689 794 1689 664 q 1596 1019 1689 926 q 1372 1111 1503 1111 l 317 1111 q 92 1019 185 1111 q 0 794 0 926 l 0 0 l 154 0 l 154 794 q 201 910 154 863 q 317 957 249 957 l 1372 957 q 1487 910 1439 957 q 1535 794 1535 863 q 1487 680 1535 728 q 1372 632 1439 632 l 589 632 q 365 540 458 632 q 272 317 272 447 q 365 93 272 186 q 589 0 458 0 l 1667 0 l 1667 154 l 589 154 q 474 201 521 154 q 426 317 426 249 q 474 431 426 383 q 589 479 521 479 z "},"S":{"ha":1813,"x_min":0,"x_max":1676,"o":"m 1361 632 l 317 632 q 201 680 249 632 q 154 794 154 728 q 201 910 154 863 q 317 957 249 957 l 1656 957 l 1656 1111 l 317 1111 q 93 1019 186 1111 q 0 794 0 926 q 93 572 0 664 q 317 479 186 479 l 1361 479 q 1476 431 1428 479 q 1524 317 1524 383 q 1476 201 1524 249 q 1361 154 1428 154 l 21 154 l 21 0 l 1361 0 q 1584 93 1492 0 q 1676 317 1676 186 q 1584 540 1676 447 q 1361 632 1492 632 z "},"T":{"ha":1813,"x_min":0,"x_max":1656,"o":"m 154 632 l 154 1111 l 0 1111 l 0 317 q 93 93 0 186 q 317 0 186 0 l 1656 0 l 1656 154 l 317 154 q 201 201 249 154 q 154 317 154 249 l 154 479 l 1656 479 l 1656 632 l 154 632 z "},"U":{"ha":1818,"x_min":0,"x_max":1689,"o":"m 0 1111 l 0 317 q 93 92 0 185 q 317 0 186 0 l 1372 0 q 1596 92 1503 0 q 1689 317 1689 185 l 1689 1111 l 1535 1111 l 1535 317 q 1487 201 1535 249 q 1372 154 1439 154 l 317 154 q 201 201 249 154 q 154 317 154 249 l 154 1111 l 0 1111 z "},"V":{"ha":1808,"x_min":0,"x_max":1689,"o":"m 1535 969 q 1528 922 1535 946 q 1343 267 1528 922 q 1285 185 1328 217 q 1188 154 1242 154 l 501 154 q 403 188 447 154 q 344 275 360 221 q 160 924 344 275 q 154 969 154 946 l 154 1111 l 0 1111 l 0 969 q 13 882 0 925 l 196 233 q 310 65 225 131 q 501 0 394 0 l 1188 0 q 1377 62 1293 0 q 1490 224 1461 124 q 1675 879 1490 225 q 1689 969 1689 925 l 1689 1111 l 1535 1111 l 1535 969 z "},"W":{"ha":2297,"x_min":0,"x_max":2135,"o":"m 1981 317 q 1933 201 1981 249 q 1818 154 1886 154 l 1307 154 q 1192 201 1240 154 q 1144 314 1144 247 q 1144 317 1144 315 l 1144 1111 l 990 1111 l 990 1111 l 990 1111 l 990 317 q 990 314 990 315 q 942 201 990 247 q 828 154 894 154 l 317 154 q 201 201 249 154 q 154 317 154 249 l 154 1111 l 0 1111 l 0 317 q 93 92 0 185 q 317 0 186 0 l 828 0 q 1067 110 972 0 q 1307 0 1163 0 l 1818 0 q 2042 92 1949 0 q 2135 317 2135 185 l 2135 1111 l 1981 1111 l 1981 317 z "},"X":{"ha":1818,"x_min":0,"x_max":1689,"o":"m 1578 556 q 1689 794 1689 650 l 1689 1111 l 1535 1111 l 1535 794 q 1487 680 1535 728 q 1372 632 1439 632 l 317 632 q 201 680 249 632 q 154 794 154 728 l 154 1111 l 0 1111 l 0 794 q 110 556 0 650 q 0 317 0 461 l 0 0 l 154 0 l 154 317 q 201 431 154 383 q 317 479 249 479 l 1372 479 q 1487 431 1439 479 q 1535 317 1535 383 l 1535 0 l 1689 0 l 1689 317 q 1578 556 1689 461 z "},"Y":{"ha":1815,"x_min":0,"x_max":1688,"o":"m 1535 632 l 317 632 q 201 680 249 632 q 154 794 154 728 l 154 1111 l 0 1111 l 0 794 q 92 572 0 664 q 317 479 185 479 l 1535 479 l 1535 317 q 1487 201 1535 249 q 1372 154 1439 154 l 33 154 l 33 0 l 1372 0 q 1595 93 1503 0 q 1688 317 1688 186 l 1688 1111 l 1535 1111 l 1535 632 z "},"Z":{"ha":1813,"x_min":0,"x_max":1676,"o":"m 317 632 l 1361 632 q 1476 680 1428 632 q 1524 794 1524 728 q 1476 910 1524 863 q 1361 957 1428 957 l 21 957 l 21 1111 l 1361 1111 q 1584 1019 1492 1111 q 1676 794 1676 926 q 1584 572 1676 664 q 1361 479 1492 479 l 317 479 q 201 431 249 479 q 154 317 154 383 q 201 201 154 249 q 317 154 249 154 l 1656 154 l 1656 0 l 317 0 q 93 93 186 0 q 0 317 0 186 q 93 540 0 447 q 317 632 186 632 z "},"\\":{"ha":542,"x_min":0,"x_max":431,"o":"m 276 33 l 276 0 l 431 0 l 431 33 q 418 124 431 78 q 161 1031 418 122 q 154 1078 154 1054 l 154 1111 l 0 1111 l 0 1078 q 13 988 0 1033 q 269 81 13 988 q 276 33 276 56 z "},"_":{"ha":1139,"x_min":-1,"x_max":983,"o":"m -1 0 l 983 0 l 983 150 l -1 150 l -1 0 z "},"a":{"ha":1829,"x_min":0,"x_max":1688,"o":"m 1372 1111 l 317 1111 q 93 1019 186 1111 q 0 794 0 926 l 0 317 q 93 92 0 185 q 317 0 186 0 l 1372 0 l 1372 154 l 317 154 q 201 201 249 154 q 154 317 154 249 l 154 794 q 201 910 154 863 q 317 957 249 957 l 1372 957 q 1487 910 1439 957 q 1535 794 1535 863 l 1535 0 l 1688 0 l 1688 794 q 1595 1019 1688 926 q 1372 1111 1503 1111 z "},"b":{"ha":1815,"x_min":0,"x_max":1688,"o":"m 1688 794 q 1595 1019 1688 926 q 1372 1111 1503 1111 l 317 1111 q 92 1019 185 1111 q 0 794 0 926 l 0 0 l 1372 0 q 1595 93 1503 0 q 1688 317 1688 186 q 1576 556 1688 460 q 1688 794 1688 651 m 1372 154 l 154 154 l 154 479 l 1372 479 q 1487 431 1439 479 q 1535 317 1535 383 q 1487 201 1535 249 q 1372 154 1439 154 m 1372 632 l 154 632 l 154 794 q 201 910 154 863 q 317 957 249 957 l 1372 957 q 1487 910 1439 957 q 1535 794 1535 863 q 1487 680 1535 728 q 1372 632 1439 632 z "},"c":{"ha":1843,"x_min":0,"x_max":1688,"o":"m 317 0 l 1688 0 l 1688 154 l 317 154 q 201 201 249 154 q 154 317 154 249 l 154 794 q 201 910 154 863 q 317 957 249 957 l 1688 957 l 1688 1111 l 317 1111 q 93 1019 186 1111 q 0 794 0 926 l 0 317 q 93 93 0 186 q 317 0 186 0 z "},"d":{"ha":1829,"x_min":0,"x_max":1688,"o":"m 1372 1111 l 0 1111 l 0 0 l 1372 0 q 1595 93 1503 0 q 1688 317 1688 186 l 1688 794 q 1595 1019 1688 926 q 1372 1111 1503 1111 m 1535 317 q 1487 201 1535 249 q 1372 154 1439 154 l 154 154 l 154 957 l 1372 957 q 1487 910 1439 957 q 1535 794 1535 863 l 1535 317 z "},"e":{"ha":1854,"x_min":0,"x_max":1689,"o":"m 1372 632 l 261 632 l 261 479 l 1372 479 q 1596 572 1503 479 q 1689 794 1689 664 q 1596 1019 1689 926 q 1372 1111 1503 1111 l 317 1111 q 93 1019 186 1111 q 0 794 0 926 l 0 317 q 93 92 0 185 q 317 0 186 0 l 1667 0 l 1667 154 l 317 154 q 201 201 249 154 q 154 317 154 249 l 154 794 q 201 910 154 863 q 317 957 249 957 l 1372 957 q 1487 910 1439 957 q 1535 794 1535 863 q 1487 680 1535 728 q 1372 632 1439 632 z "},"f":{"ha":1861,"x_min":0,"x_max":1688,"o":"m 317 1111 q 92 1019 185 1111 q 0 794 0 926 l 0 0 l 154 0 l 154 479 l 1688 479 l 1688 632 l 154 632 l 154 794 q 201 910 154 863 q 317 957 249 957 l 1688 957 l 1688 1111 l 317 1111 z "},"g":{"ha":1840,"x_min":0,"x_max":1689,"o":"m 317 0 l 1372 0 q 1596 93 1503 0 q 1689 317 1689 186 q 1596 540 1689 447 q 1372 632 1503 632 l 294 632 l 294 479 l 1372 479 q 1487 431 1439 479 q 1535 317 1535 383 q 1487 201 1535 249 q 1372 154 1439 154 l 317 154 q 201 201 249 154 q 154 317 154 249 l 154 794 q 201 910 154 863 q 317 957 249 957 l 1667 957 l 1667 1111 l 317 1111 q 93 1019 186 1111 q 0 794 0 926 l 0 317 q 93 93 0 186 q 317 0 186 0 z "},"h":{"ha":1836,"x_min":0,"x_max":1676,"o":"m 154 479 l 1524 479 l 1524 0 l 1676 0 l 1676 1111 l 1524 1111 l 1524 632 l 154 632 l 154 1111 l 0 1111 l 0 0 l 154 0 l 154 479 z "},"i":{"ha":307,"x_min":0,"x_max":154,"o":"m 154 1111 l 0 1111 l 0 0 l 154 0 l 154 1111 z "},"j":{"ha":1815,"x_min":0,"x_max":1656,"o":"m 1656 1035 l 1656 1111 l 1503 1111 l 1501 317 q 1454 201 1501 249 q 1339 154 1407 154 l 0 154 l 0 0 l 1339 0 q 1563 93 1469 0 q 1656 317 1656 186 q 1656 343 1656 256 q 1656 529 1656 396 q 1656 1035 1656 1225 z "},"k":{"ha":1822,"x_min":-1,"x_max":1676,"o":"m 1654 154 l 597 154 q 483 201 531 154 q 435 317 435 249 q 483 431 435 383 q 597 479 531 479 l 1360 479 q 1583 572 1490 479 q 1676 796 1676 665 q 1583 1019 1676 926 q 1360 1113 1490 1113 l 151 1111 l 151 1406 l -1 1406 l -1 0 l 151 0 l 151 958 l 1360 958 q 1475 910 1428 958 q 1522 796 1522 863 q 1475 681 1522 728 q 1360 633 1428 633 l 597 633 q 374 540 467 633 q 282 317 282 447 q 374 93 282 186 q 597 0 467 0 l 1654 0 l 1654 154 z "},"l":{"ha":1815,"x_min":0,"x_max":1656,"o":"m 0 1035 l 0 1111 l 154 1111 l 154 317 q 201 201 154 249 q 317 154 249 154 l 1656 154 l 1656 0 l 317 0 q 93 93 186 0 q 0 317 0 186 q 0 343 0 257 q 0 529 0 396 q 0 1035 0 1224 z "},"m":{"ha":2297,"x_min":0,"x_max":2135,"o":"m 154 794 q 201 910 154 863 q 317 957 249 957 l 828 957 q 942 910 894 957 q 990 797 990 864 q 990 794 990 796 l 990 0 l 1144 0 l 1144 0 l 1144 0 l 1144 794 q 1144 797 1144 796 q 1192 910 1144 864 q 1307 957 1240 957 l 1818 957 q 1933 910 1886 957 q 1981 794 1981 863 l 1981 0 l 2135 0 l 2135 794 q 2042 1019 2135 926 q 1818 1111 1949 1111 l 1307 1111 q 1067 1001 1163 1111 q 828 1111 972 1111 l 317 1111 q 93 1019 186 1111 q 0 794 0 926 l 0 0 l 154 0 l 154 794 z "},"n":{"ha":1818,"x_min":0,"x_max":1689,"o":"m 1689 0 l 1689 794 q 1596 1019 1689 926 q 1372 1111 1503 1111 l 317 1111 q 93 1019 186 1111 q 0 794 0 926 l 0 0 l 154 0 l 154 794 q 201 910 154 863 q 317 957 249 957 l 1372 957 q 1487 910 1439 957 q 1535 794 1535 863 l 1535 0 l 1689 0 z "},"o":{"ha":1846,"x_min":0,"x_max":1688,"o":"m 317 0 l 1372 0 q 1595 93 1503 0 q 1688 317 1688 186 l 1688 794 q 1595 1019 1688 926 q 1372 1111 1503 1111 l 317 1111 q 93 1019 186 1111 q 0 794 0 926 l 0 317 q 93 93 0 186 q 317 0 186 0 m 154 794 q 201 910 154 863 q 317 957 249 957 l 1372 957 q 1487 910 1439 957 q 1535 794 1535 863 l 1535 317 q 1487 201 1535 249 q 1372 154 1439 154 l 317 154 q 201 201 249 154 q 154 317 154 249 l 154 794 z "},"p":{"ha":1842,"x_min":3,"x_max":1693,"o":"m 1376 1113 l 319 1113 q 96 1020 189 1113 q 3 796 3 928 l 3 -185 l 157 -185 l 157 796 q 204 912 157 864 q 319 960 251 960 l 1376 960 q 1491 912 1443 960 q 1539 796 1539 864 l 1539 317 q 1491 202 1539 250 q 1376 154 1443 154 l 318 154 l 318 0 l 1376 0 q 1600 93 1507 0 q 1693 317 1693 186 l 1693 796 q 1600 1020 1693 928 q 1376 1113 1507 1113 z "},"q":{"ha":1847,"x_min":0,"x_max":1688,"o":"m 317 0 l 393 0 l 393 154 l 317 154 q 201 201 249 154 q 154 317 154 249 l 154 794 q 201 910 154 863 q 317 957 249 957 l 1372 957 q 1487 910 1439 957 q 1535 794 1535 863 l 1535 317 q 1487 201 1535 249 q 1372 154 1439 154 l 860 154 q 740 207 789 154 l 689 264 l 575 160 l 626 103 q 860 0 721 0 l 1372 0 q 1595 93 1503 0 q 1688 317 1688 186 l 1688 794 q 1595 1019 1688 926 q 1372 1111 1503 1111 l 317 1111 q 92 1019 185 1111 q 0 794 0 926 l 0 317 q 93 93 0 186 q 317 0 186 0 z "},"r":{"ha":1847,"x_min":0,"x_max":1689,"o":"m 589 479 l 1372 479 q 1596 572 1503 479 q 1689 794 1689 664 q 1596 1019 1689 926 q 1372 1111 1503 1111 l 317 1111 q 92 1019 185 1111 q 0 794 0 926 l 0 0 l 154 0 l 154 794 q 201 910 154 863 q 317 957 249 957 l 1372 957 q 1487 910 1439 957 q 1535 794 1535 863 q 1487 680 1535 728 q 1372 632 1439 632 l 589 632 q 365 540 458 632 q 272 317 272 447 q 365 93 272 186 q 589 0 458 0 l 1667 0 l 1667 154 l 589 154 q 474 201 521 154 q 426 317 426 249 q 474 431 426 383 q 589 479 521 479 z "},"s":{"ha":1813,"x_min":0,"x_max":1676,"o":"m 1361 632 l 317 632 q 201 680 249 632 q 154 794 154 728 q 201 910 154 863 q 317 957 249 957 l 1656 957 l 1656 1111 l 317 1111 q 93 1019 186 1111 q 0 794 0 926 q 93 572 0 664 q 317 479 186 479 l 1361 479 q 1476 431 1428 479 q 1524 317 1524 383 q 1476 201 1524 249 q 1361 154 1428 154 l 21 154 l 21 0 l 1361 0 q 1584 93 1492 0 q 1676 317 1676 186 q 1584 540 1676 447 q 1361 632 1492 632 z "},"t":{"ha":1813,"x_min":0,"x_max":1656,"o":"m 154 632 l 154 1111 l 0 1111 l 0 317 q 93 93 0 186 q 317 0 186 0 l 1656 0 l 1656 154 l 317 154 q 201 201 249 154 q 154 317 154 249 l 154 479 l 1656 479 l 1656 632 l 154 632 z "},"u":{"ha":1818,"x_min":0,"x_max":1689,"o":"m 0 1111 l 0 317 q 93 92 0 185 q 317 0 186 0 l 1372 0 q 1596 92 1503 0 q 1689 317 1689 185 l 1689 1111 l 1535 1111 l 1535 317 q 1487 201 1535 249 q 1372 154 1439 154 l 317 154 q 201 201 249 154 q 154 317 154 249 l 154 1111 l 0 1111 z "},"v":{"ha":1808,"x_min":0,"x_max":1689,"o":"m 1535 969 q 1528 922 1535 946 q 1343 267 1528 922 q 1285 185 1328 217 q 1188 154 1242 154 l 501 154 q 403 188 447 154 q 344 275 360 221 q 160 924 344 275 q 154 969 154 946 l 154 1111 l 0 1111 l 0 969 q 13 882 0 925 l 196 233 q 310 65 225 131 q 501 0 394 0 l 1188 0 q 1377 62 1293 0 q 1490 224 1461 124 q 1675 879 1490 225 q 1689 969 1689 925 l 1689 1111 l 1535 1111 l 1535 969 z "},"w":{"ha":2297,"x_min":0,"x_max":2135,"o":"m 1981 317 q 1933 201 1981 249 q 1818 154 1886 154 l 1307 154 q 1192 201 1240 154 q 1144 314 1144 247 q 1144 317 1144 315 l 1144 1111 l 990 1111 l 990 1111 l 990 1111 l 990 317 q 990 314 990 315 q 942 201 990 247 q 828 154 894 154 l 317 154 q 201 201 249 154 q 154 317 154 249 l 154 1111 l 0 1111 l 0 317 q 93 92 0 185 q 317 0 186 0 l 828 0 q 1067 110 972 0 q 1307 0 1163 0 l 1818 0 q 2042 92 1949 0 q 2135 317 2135 185 l 2135 1111 l 1981 1111 l 1981 317 z "},"x":{"ha":1818,"x_min":0,"x_max":1689,"o":"m 1578 556 q 1689 794 1689 650 l 1689 1111 l 1535 1111 l 1535 794 q 1487 680 1535 728 q 1372 632 1439 632 l 317 632 q 201 680 249 632 q 154 794 154 728 l 154 1111 l 0 1111 l 0 794 q 110 556 0 650 q 0 317 0 461 l 0 0 l 154 0 l 154 317 q 201 431 154 383 q 317 479 249 479 l 1372 479 q 1487 431 1439 479 q 1535 317 1535 383 l 1535 0 l 1689 0 l 1689 317 q 1578 556 1689 461 z "},"y":{"ha":1815,"x_min":0,"x_max":1688,"o":"m 1535 632 l 317 632 q 201 680 249 632 q 154 794 154 728 l 154 1111 l 0 1111 l 0 794 q 92 572 0 664 q 317 479 185 479 l 1535 479 l 1535 317 q 1487 201 1535 249 q 1372 154 1439 154 l 33 154 l 33 0 l 1372 0 q 1595 93 1503 0 q 1688 317 1688 186 l 1688 1111 l 1535 1111 l 1535 632 z "},"z":{"ha":1813,"x_min":0,"x_max":1676,"o":"m 317 632 l 1361 632 q 1476 680 1428 632 q 1524 794 1524 728 q 1476 910 1524 863 q 1361 957 1428 957 l 21 957 l 21 1111 l 1361 1111 q 1584 1019 1492 1111 q 1676 794 1676 926 q 1584 572 1676 664 q 1361 479 1492 479 l 317 479 q 201 431 249 479 q 154 317 154 383 q 201 201 154 249 q 317 154 249 154 l 1656 154 l 1656 0 l 317 0 q 93 93 186 0 q 0 317 0 186 q 93 540 0 447 q 317 632 186 632 z "},"Ä":{"ha":1818,"x_min":1,"x_max":1690,"o":"m 1374 1111 l 317 1111 q 94 1019 186 1111 q 1 794 1 926 l 1 317 q 94 92 1 185 q 317 0 186 0 l 1374 0 l 1374 153 l 317 153 q 202 201 250 153 q 154 317 154 249 l 154 794 q 202 910 154 863 q 317 958 250 958 l 1374 958 q 1488 910 1440 958 q 1536 794 1536 863 l 1536 0 l 1690 0 l 1690 794 q 1597 1019 1690 926 q 1374 1111 1504 1111 m 1121 1219 l 1361 1219 l 1361 1372 l 1121 1372 l 1121 1219 m 326 1372 l 326 1219 l 567 1219 l 567 1372 l 326 1372 z "},"Ö":{"ha":1818,"x_min":0,"x_max":1688,"o":"m 1121 1219 l 1361 1219 l 1361 1372 l 1121 1372 l 1121 1219 m 326 1372 l 326 1219 l 567 1219 l 567 1372 l 326 1372 m 317 0 l 1372 0 q 1595 93 1503 0 q 1688 317 1688 186 l 1688 794 q 1595 1019 1688 926 q 1372 1111 1503 1111 l 317 1111 q 93 1019 186 1111 q 0 794 0 926 l 0 317 q 93 93 0 186 q 317 0 186 0 m 154 794 q 201 910 154 863 q 317 957 249 957 l 1372 957 q 1487 910 1439 957 q 1535 794 1535 863 l 1535 317 q 1487 201 1535 249 q 1372 154 1439 154 l 317 154 q 201 201 249 154 q 154 317 154 249 l 154 794 z "},"Ü":{"ha":1818,"x_min":0,"x_max":1689,"o":"m 1121 1219 l 1361 1219 l 1361 1372 l 1121 1372 l 1121 1219 m 326 1372 l 326 1219 l 567 1219 l 567 1372 l 326 1372 m 0 1111 l 0 317 q 93 92 0 185 q 317 0 186 0 l 1372 0 q 1596 92 1503 0 q 1689 317 1689 185 l 1689 1111 l 1535 1111 l 1535 317 q 1487 201 1535 249 q 1372 154 1439 154 l 317 154 q 201 201 249 154 q 154 317 154 249 l 154 1111 l 0 1111 z "},"ä":{"ha":1818,"x_min":1,"x_max":1690,"o":"m 1374 1111 l 317 1111 q 94 1019 186 1111 q 1 794 1 926 l 1 317 q 94 92 1 185 q 317 0 186 0 l 1374 0 l 1374 153 l 317 153 q 202 201 250 153 q 154 317 154 249 l 154 794 q 202 910 154 863 q 317 958 250 958 l 1374 958 q 1488 910 1440 958 q 1536 794 1536 863 l 1536 0 l 1690 0 l 1690 794 q 1597 1019 1690 926 q 1374 1111 1504 1111 m 1121 1219 l 1361 1219 l 1361 1372 l 1121 1372 l 1121 1219 m 326 1372 l 326 1219 l 567 1219 l 567 1372 l 326 1372 z "},"ö":{"ha":1818,"x_min":0,"x_max":1688,"o":"m 1121 1219 l 1361 1219 l 1361 1372 l 1121 1372 l 1121 1219 m 326 1372 l 326 1219 l 567 1219 l 567 1372 l 326 1372 m 317 0 l 1372 0 q 1595 93 1503 0 q 1688 317 1688 186 l 1688 794 q 1595 1019 1688 926 q 1372 1111 1503 1111 l 317 1111 q 93 1019 186 1111 q 0 794 0 926 l 0 317 q 93 93 0 186 q 317 0 186 0 m 154 794 q 201 910 154 863 q 317 957 249 957 l 1372 957 q 1487 910 1439 957 q 1535 794 1535 863 l 1535 317 q 1487 201 1535 249 q 1372 154 1439 154 l 317 154 q 201 201 249 154 q 154 317 154 249 l 154 794 z "},"ü":{"ha":1818,"x_min":0,"x_max":1689,"o":"m 1121 1219 l 1361 1219 l 1361 1372 l 1121 1372 l 1121 1219 m 326 1372 l 326 1219 l 567 1219 l 567 1372 l 326 1372 m 0 1111 l 0 317 q 93 92 0 185 q 317 0 186 0 l 1372 0 q 1596 92 1503 0 q 1689 317 1689 185 l 1689 1111 l 1535 1111 l 1535 317 q 1487 201 1535 249 q 1372 154 1439 154 l 317 154 q 201 201 249 154 q 154 317 154 249 l 154 1111 l 0 1111 z "},"®":{"ha":1842,"x_min":0,"x_max":1688,"o":"m 1372 1111 l 317 1111 q 93 1019 186 1111 q 0 794 0 926 l 0 317 q 93 93 0 186 q 317 0 186 0 l 1372 0 q 1595 93 1503 0 q 1688 317 1688 186 l 1688 794 q 1595 1019 1688 926 q 1372 1111 1503 1111 m 1535 317 q 1487 201 1535 249 q 1372 154 1439 154 l 317 154 q 201 201 249 154 q 154 317 154 249 l 154 794 q 201 910 154 863 q 317 957 249 957 l 1372 957 q 1487 910 1439 957 q 1535 794 1535 863 l 1535 317 m 803 479 l 1058 479 q 1182 530 1131 479 q 1233 653 1233 581 q 1182 777 1233 726 q 1058 828 1131 828 l 626 828 q 503 777 554 828 q 451 653 451 726 l 451 282 l 606 282 l 606 653 q 626 675 606 675 l 1058 675 q 1081 653 1081 675 q 1058 632 1081 632 l 803 632 q 680 581 731 632 q 629 457 629 529 q 680 333 629 385 q 803 282 731 282 l 1225 282 l 1225 436 l 803 436 q 782 457 782 436 q 803 479 782 479 z "},"©":{"ha":1819,"x_min":0,"x_max":1688,"o":"m 1372 1111 l 317 1111 q 92 1019 185 1111 q 0 794 0 926 l 0 317 q 93 93 0 186 q 317 0 186 0 l 1372 0 q 1595 93 1503 0 q 1688 317 1688 186 l 1688 794 q 1595 1019 1688 926 q 1372 1111 1503 1111 m 1535 317 q 1487 201 1535 249 q 1372 154 1439 154 l 317 154 q 201 201 249 154 q 154 317 154 249 l 154 794 q 201 910 154 863 q 317 957 249 957 l 1372 957 q 1487 910 1439 957 q 1535 794 1535 863 l 1535 317 m 628 828 q 504 777 556 828 q 453 654 453 726 l 453 457 q 504 334 453 385 q 628 283 556 283 l 1169 283 l 1169 436 l 628 436 q 607 457 607 436 l 607 654 q 628 675 607 675 l 1169 675 l 1169 828 l 628 828 z "}," ":{"ha":1389,"x_min":0,"x_max":0,"o":""}}}
